<?xml version="1.0" encoding="UTF-8"?>
<svg id="Camada_1" data-name="Camada 1" xmlns="http://www.w3.org/2000/svg" version="1.1" viewBox="0 0 1280 800">
  <defs>
    <style>
      .cls-1 {
        fill: #618172;
      }

      .cls-1, .cls-2, .cls-3 {
        fill-rule: evenodd;
      }

      .cls-1, .cls-2, .cls-3, .cls-4 {
        stroke-width: 0px;
      }

      .cls-2 {
        fill: #b14830;
      }

      .cls-3 {
        fill: #f1be44;
      }

      .cls-4 {
        fill: #585858;
      }
    </style>
  </defs>
  <g>
    <path class="cls-4" d="M283.73,772.73c-.26-.15-.39-.33-.39-.55,0-.47.47-.82,1.43-1.04,1.39-.36,2.36-.8,2.91-1.31.55-.51.83-1.34.83-2.48v-24.89c0-1.24-.25-2.14-.74-2.69-.5-.55-1.4-.93-2.72-1.16-.48-.07-.84-.21-1.07-.41-.24-.2-.36-.43-.36-.69s.12-.45.36-.58c.23-.13.56-.19.96-.19,1.54,0,2.84.06,3.9.17,1.17.07,2.16.11,2.97.11.48,0,1-.02,1.57-.05.57-.04,1-.08,1.29-.11,1.28-.18,2.75-.27,4.39-.27,4.47,0,7.78.63,9.92,1.9,2.14,1.27,3.21,3.36,3.21,6.29,0,1.1-.23,2.14-.69,3.13-.46.99-1.05,1.79-1.79,2.42-.58.55-1.17.99-1.76,1.32-.58.33-1.3.62-2.14.88-.15.08-.22.18-.22.3,0,.13.08.21.22.25,2.45.59,4.48,1.52,6.07,2.8,1.59,1.28,2.39,3.33,2.39,6.15,0,1.87-.3,3.41-.9,4.62-.61,1.21-1.29,2.13-2.06,2.75-.77.62-1.7,1.21-2.8,1.76-2.42,1.17-5.59,1.76-9.51,1.76-.58,0-1.58-.04-2.97-.11-1.61-.08-2.88-.11-3.79-.11s-2.13.04-3.74.11c-1.25.11-2.53.16-3.85.16-.37,0-.68-.08-.93-.22ZM303.24,750.87c.47-.4.93-1.02,1.35-1.84.42-.82.63-1.91.63-3.27,0-4.69-2.15-7.04-6.43-7.04-1.17,0-2,.19-2.47.58-.48.39-.71,1-.71,1.84v9.29c0,.7.23,1.2.71,1.51.47.31,1.01.46,1.59.46,2.05,0,3.83-.51,5.33-1.54ZM302.85,769.13c1.1-.68,1.98-1.61,2.64-2.8.66-1.19.99-2.5.99-3.93,0-1.76-.32-3.17-.96-4.23-.64-1.06-1.39-1.85-2.23-2.36-.47-.33-1.13-.62-1.98-.88-.84-.25-1.83-.39-2.97-.39-.77,0-1.42.18-1.95.52-.53.35-.8.78-.8,1.29v10.17c0,2.42,1.23,3.63,3.68,3.63,1.28,0,2.48-.34,3.57-1.02Z"/>
    <path class="cls-4" d="M347.99,772.73c-1.45-.73-2.74-1.81-3.87-3.24-1.47-1.94-2.73-3.69-3.79-5.25-1.06-1.56-2.24-3.55-3.52-5.96-.51-.88-1.12-1.5-1.81-1.87-.73-.4-1.63-.64-2.69-.71h-.06c-.4,0-.6.37-.6,1.1v10.22c0,1.17.3,2.07.91,2.69.6.62,1.64,1.06,3.1,1.32.47.11.82.25,1.04.41.22.16.33.39.33.69,0,.48-.39.71-1.16.71-1.39,0-2.78-.05-4.18-.16-1.61-.07-2.73-.11-3.35-.11-1.24,0-2.47.06-3.68.16-.44.04-1.07.08-1.9.11-.82.04-1.55.06-2.17.06-.33,0-.62-.07-.88-.19-.26-.13-.39-.3-.39-.52,0-.55.46-.93,1.37-1.15,1.43-.29,2.43-.7,2.99-1.21.57-.51.85-1.35.85-2.53v-24.29c0-1.1-.08-1.92-.25-2.47s-.48-.97-.93-1.24c-.46-.27-1.18-.5-2.17-.69-.48-.07-.84-.21-1.07-.41-.24-.2-.36-.43-.36-.69,0-.51.44-.77,1.32-.77,1.54,0,2.8.06,3.79.17,1.17.07,2.14.11,2.91.11.51,0,1.04-.03,1.59-.08.55-.06.95-.08,1.21-.08,1.21-.18,2.67-.27,4.4-.27,4.25,0,7.49.74,9.73,2.23,2.23,1.48,3.35,3.71,3.35,6.68,0,2.23-.66,4.06-1.98,5.47-1.32,1.41-2.97,2.5-4.95,3.27-.15.04-.21.13-.19.27.02.15.08.27.19.39,1.98,3,3.72,5.5,5.22,7.5,1.5,2,3.19,3.84,5.06,5.52,1.02.96,2.07,1.56,3.13,1.82,1.06.26,2.42.39,4.07.39.55,0,.82.27.82.82,0,1.03-.55,1.77-1.65,2.22-1.1.46-2.49.69-4.18.69-2.31,0-4.18-.37-5.63-1.1ZM339.06,751.99c1.21-1.41,1.82-3.21,1.82-5.41,0-2.56-.51-4.52-1.54-5.85-1.02-1.34-2.73-2.01-5.11-2.01-.95,0-1.6.35-1.95,1.04-.35.7-.54,2.05-.58,4.06-.04,1.14-.05,3.88-.05,8.24,0,.77.19,1.3.58,1.59.39.29.98.44,1.79.44,2.16,0,3.84-.7,5.05-2.12Z"/>
    <path class="cls-4" d="M362.14,772.13c0-.29.12-.53.36-.71.24-.19.61-.37,1.12-.55,2.27-.58,3.83-1.87,4.67-3.84,3.3-7.58,6.56-15.83,9.78-24.73.33-.99.59-1.84.79-2.55.2-.72.34-1.2.42-1.46,1.31-.33,2.36-.66,3.13-.99.58-.29,1.07-.66,1.46-1.12.39-.46.61-.72.69-.8.29-.22.51-.18.66.11.07.15.24.6.5,1.37,1.35,4.32,2.92,9.2,4.7,14.65,1.78,5.44,3.01,9.2,3.71,11.29l1.27,3.74c.47,1.39,1.1,2.41,1.87,3.05.77.64,1.78,1.11,3.02,1.4.99.22,1.48.62,1.48,1.21,0,.44-.43.66-1.27.66l-3.79-.11c-1.65-.11-3.21-.16-4.67-.16-.81,0-2.13.04-3.96.11-1.68.07-2.84.11-3.46.11-.4,0-.73-.07-.99-.19s-.39-.32-.39-.58c0-.58.5-.97,1.48-1.16,1.24-.22,2.15-.52,2.72-.9.57-.39.85-.91.85-1.57,0-.26-.02-.44-.05-.55-.3-1.61-.93-4.1-1.93-7.47-.08-.33-.19-.55-.36-.66-.16-.11-.43-.16-.79-.16h-9.89c-.44,0-.75.33-.93.99-1.1,3.26-1.78,5.49-2.04,6.7-.04.19-.05.44-.05.77,0,.77.27,1.37.8,1.82.53.44,1.38.81,2.55,1.1.99.22,1.48.6,1.48,1.15,0,.22-.12.39-.36.52-.23.13-.56.19-.96.19l-2.63-.06c-1.25-.07-2.28-.11-3.08-.11-.51,0-1.11.03-1.79.08-.68.06-1.18.08-1.51.08-1.03.11-2.05.16-3.08.16s-1.54-.27-1.54-.82ZM384.4,757.02c.29,0,.49-.02.6-.06.11-.04.17-.12.17-.27,0-.04-.04-.23-.11-.6l-3.85-12.69c-.19-.51-.31-.77-.39-.77-.04,0-.16.24-.39.72l-4.61,12.75c-.08.15-.11.29-.11.44,0,.33.35.5,1.04.5h7.64Z"/>
    <path class="cls-4" d="M426.98,772.84c-3.96-.07-7.18-.11-9.67-.11-1.76,0-4.25.04-7.47.11l-4.23.06c-.26,0-.45-.19-.58-.58s-.15-.63-.08-.74c.33-.66,1.39-2.38,3.19-5.17l5.38-8.13c4.58-6.85,8.41-12.73,11.49-17.64.22-.29.33-.53.33-.71,0-.33-.31-.51-.93-.55l-5.55-.05c-2.09,0-3.57.02-4.45.05-1.32.08-2.56.5-3.71,1.26-1.16.77-2.08,1.83-2.78,3.19-.29.55-.6,1-.91,1.35-.31.35-.69.52-1.12.52-.22,0-.39-.08-.52-.25-.13-.16-.19-.35-.19-.58,0-.29.12-.79.38-1.48.85-1.9,1.38-4.21,1.59-6.92.04-.47.14-.81.31-1.01.16-.2.41-.31.74-.31.22,0,.64.2,1.27.61.66.37,1.06.58,1.21.66,1.1.44,2.67.66,4.72.66h6.65c2.86,0,5.82-.06,8.9-.16l3.63-.06c.22,0,.43.16.63.5.2.33.27.57.19.71l-3.63,5.44c-3.08,4.47-6.54,9.8-10.38,15.99-.88,1.36-1.77,2.76-2.67,4.21-.9,1.45-1.84,2.92-2.83,4.42-.3.44-.44.84-.44,1.21,0,.44.35.7,1.04.77,1.14.11,2.75.16,4.83.16,3.19,0,5.64-.22,7.36-.66,1.17-.29,2.18-.89,3.02-1.78.84-.9,1.58-2.15,2.2-3.77.26-.58.62-.88,1.1-.88.22,0,.39.06.52.19.12.13.19.32.19.58,0,.62-.22,1.79-.66,3.52-.44,1.72-.86,3.21-1.26,4.45-.26.66-.7.99-1.32.99l-5.49-.06Z"/>
    <path class="cls-4" d="M440.06,772.71c-.26-.13-.39-.3-.39-.52,0-.55.46-.93,1.37-1.15,1.47-.29,2.49-.7,3.08-1.21.59-.51.88-1.34.88-2.48v-24.95c0-1.21-.26-2.07-.77-2.59-.51-.51-1.48-.91-2.91-1.21-.92-.15-1.37-.53-1.37-1.15,0-.22.13-.39.39-.52.26-.13.55-.19.88-.19.92,0,2.22.04,3.91.11,1.61.08,2.78.11,3.52.11s1.87-.04,3.4-.11c1.76-.07,3.08-.11,3.96-.11.37,0,.66.07.88.19.22.13.33.32.33.58,0,.29-.11.52-.33.69-.22.16-.57.3-1.04.41-1.47.37-2.46.81-2.97,1.32-.51.51-.77,1.35-.77,2.53v24.84c0,1.1.29,1.91.88,2.44.59.53,1.59.96,3.02,1.29.47.11.83.25,1.07.41s.36.39.36.69c0,.48-.4.71-1.21.71-.96,0-2.31-.04-4.07-.11-1.61-.07-2.78-.11-3.52-.11-.81,0-2.05.04-3.74.11-1.24.11-2.56.17-3.96.17-.33,0-.62-.07-.88-.19Z"/>
    <path class="cls-4" d="M462.13,772.73c-.24-.15-.36-.33-.36-.55,0-.25.12-.47.36-.66.24-.18.5-.31.8-.39,1.39-.36,2.38-.79,2.97-1.29.59-.5.88-1.29.88-2.39v-25.28c0-1.21-.23-2.02-.69-2.44-.46-.42-1.4-.8-2.83-1.13-.96-.18-1.43-.57-1.43-1.15,0-.22.13-.39.39-.52s.55-.19.88-.19c1.03,0,2.35.04,3.96.11,1.54.08,2.66.11,3.35.11.77,0,2.03-.04,3.79-.11,1.76-.07,3.09-.11,4.01-.11.37,0,.66.07.88.19s.33.32.33.58c0,.29-.11.52-.33.69s-.57.3-1.04.41c-1.58.4-2.67.81-3.27,1.24-.61.42-.91,1.14-.91,2.17v25.11c0,1.1.24,1.89.71,2.36.48.48,1.37.72,2.69.72h5.99c.81,0,1.56-.15,2.25-.44.7-.29,1.28-.66,1.76-1.1.62-.55,1.16-1.14,1.59-1.78s.88-1.44,1.32-2.39c.51-1.14.97-1.7,1.37-1.7.22,0,.39.11.52.33.13.22.19.46.19.71l-.11.82c-.51,1.79-.88,3.17-1.1,4.12-.22.95-.38,2.01-.49,3.19-.08.66-.37.99-.88.99-1.21,0-3.87-.04-7.97-.11-3.67-.11-7.33-.16-10.99-.16-.07,0-1.76.05-5.05.16l-2.64.11c-.37,0-.67-.08-.91-.22Z"/>
    <path class="cls-4" d="M496.17,772.71c-.26-.13-.39-.3-.39-.52,0-.55.46-.93,1.37-1.15,1.47-.29,2.49-.7,3.08-1.21.59-.51.88-1.34.88-2.48v-24.95c0-1.21-.26-2.07-.77-2.59-.51-.51-1.48-.91-2.91-1.21-.92-.15-1.37-.53-1.37-1.15,0-.22.13-.39.39-.52s.55-.19.88-.19c.92,0,2.22.04,3.91.11,1.61.08,2.78.11,3.52.11s1.87-.04,3.4-.11c1.76-.07,3.08-.11,3.96-.11.37,0,.66.07.88.19.22.13.33.32.33.58,0,.29-.11.52-.33.69-.22.16-.57.3-1.04.41-1.47.37-2.46.81-2.97,1.32-.51.51-.77,1.35-.77,2.53v24.84c0,1.1.29,1.91.88,2.44.59.53,1.59.96,3.02,1.29.47.11.83.25,1.07.41.24.16.36.39.36.69,0,.48-.4.71-1.21.71-.96,0-2.31-.04-4.07-.11-1.61-.07-2.78-.11-3.52-.11-.81,0-2.05.04-3.74.11-1.24.11-2.56.17-3.96.17-.33,0-.62-.07-.88-.19Z"/>
    <path class="cls-4" d="M516.39,772.13c0-.29.12-.53.36-.71.24-.19.61-.37,1.12-.55,2.27-.58,3.83-1.87,4.67-3.84,3.3-7.58,6.56-15.83,9.78-24.73.33-.99.59-1.84.79-2.55.2-.72.34-1.2.42-1.46,1.31-.33,2.36-.66,3.13-.99.58-.29,1.07-.66,1.46-1.12.39-.46.61-.72.69-.8.29-.22.51-.18.66.11.07.15.24.6.5,1.37,1.35,4.32,2.92,9.2,4.7,14.65,1.78,5.44,3.01,9.2,3.71,11.29l1.27,3.74c.47,1.39,1.1,2.41,1.87,3.05.77.64,1.78,1.11,3.02,1.4.99.22,1.48.62,1.48,1.21,0,.44-.43.66-1.27.66l-3.79-.11c-1.65-.11-3.21-.16-4.67-.16-.81,0-2.13.04-3.96.11-1.68.07-2.84.11-3.46.11-.4,0-.73-.07-.99-.19s-.39-.32-.39-.58c0-.58.5-.97,1.48-1.16,1.24-.22,2.15-.52,2.72-.9.57-.39.85-.91.85-1.57,0-.26-.02-.44-.05-.55-.3-1.61-.93-4.1-1.93-7.47-.08-.33-.19-.55-.36-.66-.16-.11-.43-.16-.79-.16h-9.89c-.44,0-.75.33-.93.99-1.1,3.26-1.78,5.49-2.04,6.7-.04.19-.05.44-.05.77,0,.77.27,1.37.8,1.82.53.44,1.38.81,2.55,1.1.99.22,1.48.6,1.48,1.15,0,.22-.12.39-.36.52-.23.13-.56.19-.96.19l-2.63-.06c-1.25-.07-2.28-.11-3.08-.11-.51,0-1.11.03-1.79.08-.68.06-1.18.08-1.51.08-1.03.11-2.05.16-3.08.16s-1.54-.27-1.54-.82ZM538.64,757.02c.29,0,.49-.02.6-.06.11-.04.17-.12.17-.27,0-.04-.04-.23-.11-.6l-3.85-12.69c-.19-.51-.31-.77-.39-.77-.04,0-.16.24-.39.72l-4.61,12.75c-.08.15-.11.29-.11.44,0,.33.35.5,1.04.5h7.64Z"/>
    <path class="cls-4" d="M592.22,772.73c-1.03-.62-2.01-1.54-2.97-2.75-1.47-1.61-2.98-3.31-4.53-5.08-1.56-1.78-2.99-3.4-4.31-4.87-5.68-6.41-9.67-10.88-11.98-13.41-.37-.44-.66-.66-.88-.66-.15,0-.26.12-.33.36-.08.24-.11.49-.11.74v3.46l.06,16.16c0,1.17.33,2.12.99,2.83.66.72,1.7,1.22,3.13,1.51.55.11.96.25,1.24.41.27.16.41.39.41.69,0,.22-.15.39-.44.52-.3.13-.64.19-1.04.19-1.1,0-2.24-.04-3.41-.11-.95-.07-1.74-.11-2.36-.11-.41,0-1.48.05-3.25.16-.88.07-1.48.11-1.81.11-.37,0-.7-.07-.99-.19-.29-.13-.44-.3-.44-.52,0-.29.13-.52.39-.69s.64-.32,1.16-.46c1.72-.55,2.71-2.04,2.97-4.45.7-7.47,1.04-14.74,1.04-21.81,0-1.76-.43-3.07-1.29-3.93-.86-.86-2.13-1.6-3.82-2.23-.4-.11-.77-.27-1.1-.49-.33-.22-.49-.48-.49-.77,0-.55.46-.82,1.37-.82.84,0,2.1.04,3.79.11,1.87.11,3.92.17,6.15.17.44,0,.82.24,1.16.71,1.1,1.24,4.29,4.95,9.56,11.1,5.68,6.67,9.45,11.05,11.32,13.13.47.59.82.88,1.04.88.15,0,.27-.08.35-.25.09-.16.14-.39.14-.69v-8.63c0-5.02-.02-8.7-.05-11.04-.04-.85-.39-1.55-1.07-2.12-.68-.57-1.59-.96-2.72-1.18-1.21-.29-1.82-.68-1.82-1.16,0-.22.17-.39.52-.52.35-.13.72-.19,1.12-.19l4.62.06,2.64-.06c1.17-.07,2.31-.11,3.4-.11.44,0,.8.07,1.07.19s.41.3.41.52c0,.55-.53.93-1.59,1.15-1.32.26-2.23.62-2.75,1.07-.51.46-.79,1.18-.82,2.17,0,2.45-.06,5.64-.17,9.56-.15,6.15-.22,10.66-.22,13.52,0,.84.04,1.8.14,2.86.09,1.07.15,1.76.19,2.09.11.77.16,1.34.16,1.7,0,1.39-.47,2.09-1.43,2.09-.55,0-1.34-.31-2.36-.93Z"/>
    <path class="cls-4" d="M621.78,771.09c-.47-.37-.82-.79-1.04-1.26-.55-1.65-.79-4.07-.72-7.26,0-.47.35-.71,1.04-.71.29,0,.52.05.69.14.17.09.28.27.36.52.81,2.75,1.98,4.89,3.52,6.43s3.28,2.31,5.22,2.31c1.72,0,3.09-.57,4.12-1.7,1.03-1.14,1.54-2.51,1.54-4.12,0-1.24-.22-2.28-.66-3.1-.44-.83-1.08-1.56-1.93-2.2-.84-.64-2.05-1.42-3.63-2.33-2.13-1.25-3.77-2.29-4.95-3.13-1.17-.84-2.19-1.93-3.05-3.27-.86-1.34-1.29-2.94-1.29-4.81,0-2.01.52-3.81,1.56-5.38,1.04-1.58,2.5-2.8,4.37-3.68,1.87-.88,4.03-1.32,6.49-1.32,1.24,0,2.45.13,3.63.39,1.17.26,2.16.57,2.97.93.36.15.65.33.85.55.2.22.38.57.52,1.04.55,1.9.82,3.94.82,6.1,0,.44-.31.66-.93.66-.33,0-.64-.07-.93-.22s-.47-.35-.55-.61c-1.35-4.32-3.68-6.48-6.98-6.48-1.72,0-3.08.45-4.06,1.35-.99.9-1.48,2.24-1.48,4.04,0,1.28.59,2.46,1.78,3.52,1.19,1.06,3.1,2.38,5.74,3.96,2.82,1.72,4.87,3.4,6.15,5.03,1.28,1.63,1.92,3.65,1.92,6.07,0,3.56-1.14,6.27-3.43,8.16-2.29,1.89-5.4,2.83-9.32,2.83-3.26,0-6.04-.81-8.35-2.42Z"/>
    <path class="cls-4" d="M657.69,772.71c-.27-.13-.41-.3-.41-.52,0-.55.49-.93,1.48-1.15,1.47-.29,2.51-.71,3.13-1.24.62-.53.93-1.38.93-2.55v-22.25c0-2.13-.08-3.53-.22-4.23-.15-.7-.4-1.1-.77-1.21-.62-.22-1.61-.33-2.97-.33h-1.7c-1.06,0-2.09.26-3.08.77-.99.51-1.76,1.17-2.31,1.97-.33.55-.76,1.11-1.29,1.68-.53.57-1.02.85-1.46.85s-.66-.29-.66-.88c0-.37.11-.81.33-1.32.62-1.28,1.08-2.39,1.37-3.33.29-.93.51-2.02.66-3.27.15-.88.55-1.31,1.21-1.31.18,0,.46.24.82.74s.64.85.82,1.07c.29.3.84.53,1.65.72.81.18,1.56.27,2.25.27l20.28-.06c1.72,0,3.13-.26,4.23-.77.26-.15.61-.4,1.04-.77.29-.26.54-.45.74-.58.2-.13.43-.19.69-.19.37,0,.55.35.55,1.04,0,.18-.05.6-.16,1.26l-.39,1.54c-.37,1.35-.55,2.47-.55,3.35v.93c0,.55-.08,1-.25,1.35s-.39.52-.69.52-.55-.17-.77-.5c-.22-.33-.42-.88-.6-1.65-.33-1.21-.89-2.09-1.68-2.64-.79-.55-1.99-.82-3.6-.82h-3.74c-.77,0-1.33.14-1.67.41-.35.27-.6.82-.74,1.65-.15.82-.22,2.15-.22,3.98v21.93c0,1.13.31,1.98.93,2.53.62.55,1.67.99,3.13,1.32.51.11.89.25,1.12.41.24.16.36.39.36.69,0,.22-.13.39-.39.52-.26.13-.57.19-.93.19-.88,0-2.24-.04-4.06-.11-1.69-.07-2.91-.11-3.68-.11-.73,0-1.98.04-3.74.11-1.32.11-2.67.17-4.06.17-.37,0-.69-.07-.96-.19Z"/>
    <path class="cls-4" d="M688.88,772.73c-.26-.15-.39-.33-.39-.55,0-.47.48-.82,1.43-1.04,1.35-.36,2.31-.79,2.86-1.29.55-.5.82-1.33.82-2.5v-24.89c0-1.21-.24-2.08-.74-2.61-.5-.53-1.42-.94-2.78-1.24-.95-.18-1.43-.55-1.43-1.1,0-.26.12-.45.35-.58s.56-.19.96-.19c1.1,0,2.6.04,4.51.11,1.9.08,3.32.11,4.23.11,2.93,0,6.41-.04,10.44-.11,1.13-.04,2.12-.09,2.94-.16.82-.08,1.31-.11,1.46-.11.77,0,1.19.27,1.26.82l.39,2.48c.33,1.9.5,3.29.5,4.18,0,.29-.08.53-.22.71-.15.19-.33.27-.55.27-.37,0-.66-.25-.88-.77-.29-.77-.58-1.49-.85-2.17-.27-.68-.56-1.16-.85-1.46-1.03-1.1-2.33-1.65-3.91-1.65h-5.11c-.7,0-1.31.2-1.84.61-.53.4-.8.93-.8,1.59v10.77c0,.85.43,1.27,1.27,1.27h5c.92,0,1.59-.24,2.01-.72.42-.47.81-1.26,1.18-2.36.22-.73.57-1.1,1.04-1.1.18,0,.35.1.5.31.15.2.22.46.22.8-.15,1.47-.22,2.87-.22,4.23,0,1.87.05,3.35.16,4.45v.28c0,.66-.19.99-.55.99-.26,0-.5-.14-.74-.41s-.41-.65-.52-1.13c-.29-1.06-.64-1.84-1.04-2.33-.41-.5-.96-.74-1.65-.74h-5.11c-.55,0-.94.1-1.18.31-.24.2-.36.54-.36,1.01v10.44c0,1.17.25,2,.74,2.48.5.47,1.29.71,2.39.71h4.51c1.97,0,3.46-.36,4.45-1.1.99-.77,2.03-2.2,3.13-4.29.26-.48.59-.71.99-.71.36.04.55.35.55.93,0,1.17-.57,3.46-1.7,6.87-.22.51-.58.77-1.1.77l-6.59-.11c-4.69-.08-8.37-.11-11.05-.11-.7,0-1.85.04-3.46.11-1.21.11-2.45.16-3.74.16-.37,0-.68-.08-.93-.22Z"/>
    <path class="cls-4" d="M720.47,772.13c0-.29.12-.53.36-.71.24-.19.61-.37,1.12-.55,2.27-.58,3.83-1.87,4.67-3.84,3.3-7.58,6.56-15.83,9.78-24.73.33-.99.59-1.84.79-2.55.2-.72.34-1.2.42-1.46,1.31-.33,2.36-.66,3.13-.99.58-.29,1.07-.66,1.46-1.12.39-.46.61-.72.69-.8.29-.22.51-.18.66.11.07.15.24.6.5,1.37,1.35,4.32,2.92,9.2,4.7,14.65,1.78,5.44,3.01,9.2,3.71,11.29l1.27,3.74c.47,1.39,1.1,2.41,1.87,3.05.77.64,1.78,1.11,3.02,1.4.99.22,1.48.62,1.48,1.21,0,.44-.43.66-1.27.66l-3.79-.11c-1.65-.11-3.21-.16-4.67-.16-.81,0-2.13.04-3.96.11-1.68.07-2.84.11-3.46.11-.4,0-.73-.07-.99-.19s-.39-.32-.39-.58c0-.58.5-.97,1.48-1.16,1.24-.22,2.15-.52,2.72-.9.57-.39.85-.91.85-1.57,0-.26-.02-.44-.05-.55-.3-1.61-.93-4.1-1.93-7.47-.08-.33-.19-.55-.36-.66-.16-.11-.43-.16-.79-.16h-9.89c-.44,0-.75.33-.93.99-1.1,3.26-1.78,5.49-2.04,6.7-.04.19-.05.44-.05.77,0,.77.27,1.37.8,1.82.53.44,1.38.81,2.55,1.1.99.22,1.48.6,1.48,1.15,0,.22-.12.39-.36.52-.23.13-.56.19-.96.19l-2.63-.06c-1.25-.07-2.28-.11-3.08-.11-.51,0-1.11.03-1.79.08-.68.06-1.18.08-1.51.08-1.03.11-2.05.16-3.08.16s-1.54-.27-1.54-.82ZM742.73,757.02c.29,0,.49-.02.6-.06.11-.04.17-.12.17-.27,0-.04-.04-.23-.11-.6l-3.85-12.69c-.19-.51-.31-.77-.39-.77-.04,0-.16.24-.39.72l-4.61,12.75c-.08.15-.11.29-.11.44,0,.33.35.5,1.04.5h7.64Z"/>
    <path class="cls-4" d="M763.22,772.76c-.33-.17-.5-.36-.5-.58,0-.55.53-.93,1.59-1.15,1.35-.26,2.27-.64,2.75-1.16.48-.51.72-1.39.72-2.64v-24.83c0-1.21-.25-2.07-.74-2.59-.49-.51-1.46-.91-2.88-1.21-.96-.18-1.43-.57-1.43-1.15,0-.22.13-.39.39-.52s.55-.19.88-.19c.96,0,2.27.04,3.96.11,1.54.08,2.66.11,3.35.11s1.72-.04,3.19-.11c1.68-.07,2.98-.11,3.9-.11.37,0,.66.07.88.19.22.13.33.32.33.58,0,.29-.11.52-.33.69-.22.16-.57.3-1.04.41-1.39.33-2.3.76-2.72,1.29-.43.53-.63,1.38-.63,2.55v10.88c0,.22.04.43.14.61.09.18.21.27.36.27.33,0,.78-.29,1.37-.88l10.71-11.32c.62-.62.93-1.19.93-1.7,0-.33-.15-.63-.47-.91-.31-.27-.76-.48-1.35-.63-.92-.22-1.37-.6-1.37-1.15,0-.22.13-.39.39-.52.26-.13.55-.19.88-.19h3.52c1.35,0,3.24-.04,5.66-.11l4.56-.06c.4,0,.73.07.99.19.25.13.39.3.39.52,0,.55-.57.92-1.7,1.1-3.26.47-6.08,1.65-8.46,3.52-1.28.99-2.48,2.02-3.6,3.1-1.12,1.08-2.54,2.5-4.26,4.26l-1.98,1.98c-.19.15-.27.35-.27.61,0,.22.13.49.39.82l13.24,14.5c.95,1.1,1.8,1.9,2.55,2.42.75.51,1.82.93,3.21,1.27.62.18,1.07.35,1.35.49.27.15.41.35.41.61s-.17.46-.52.6c-.35.15-.83.22-1.46.22-1.58,0-3.08-.05-4.5-.16-.48-.04-1.17-.08-2.09-.11-.92-.04-1.74-.05-2.47-.05l-2.8.05c-1.32.07-2.42.11-3.3.11-.33,0-.62-.07-.88-.19s-.39-.3-.39-.52c0-.29.1-.52.31-.69.2-.16.52-.3.96-.41,1.32-.26,1.98-.71,1.98-1.37,0-.44-.3-.99-.88-1.65l-9.83-11.21c-.51-.62-.93-.93-1.27-.93-.29,0-.44.35-.44,1.04,0,3.4.07,6.8.22,10.17.08,1.21.31,2.11.72,2.69.4.58,1.26,1.03,2.58,1.32.51.11.91.25,1.18.41.27.16.41.39.41.69,0,.22-.15.4-.46.55-.31.15-.69.22-1.13.22-1.28,0-2.66-.08-4.12-.22-.88-.11-1.76-.16-2.63-.16-.7,0-1.7.07-3.02.22-1.9.19-3.33.27-4.29.27-.4,0-.77-.08-1.1-.24Z"/>
    <path class="cls-4" d="M805.92,772.68c-.26-.15-.39-.33-.39-.55,0-.29.11-.52.33-.69.22-.16.57-.31,1.04-.41,1.28-.29,2.15-.69,2.61-1.18.46-.5.69-1.35.69-2.55v-24.89c0-1.25-.19-2.12-.58-2.61-.39-.5-1.24-.89-2.55-1.18-.92-.15-1.37-.51-1.37-1.1,0-.26.12-.45.35-.58s.54-.19.91-.19c.99,0,2.25.04,3.79.11,1.47.08,2.51.11,3.13.11.66,0,1.76-.04,3.29-.11,1.69-.07,3.02-.11,4.01-.11.77,0,1.16.27,1.16.82,0,.3-.1.51-.3.66-.2.15-.56.27-1.07.39-1.43.37-2.39.81-2.89,1.35-.5.53-.74,1.37-.74,2.5v10.22c0,.44.27.66.82.66h16.43c.4,0,.6-.25.6-.77v-10.17c0-1.06-.25-1.88-.74-2.45-.5-.57-1.44-1.01-2.83-1.35-.51-.11-.88-.23-1.1-.39-.22-.15-.33-.36-.33-.66,0-.55.4-.82,1.21-.82.95,0,2.31.04,4.06.11,1.61.08,2.78.11,3.52.11.59,0,1.54-.04,2.86-.11,1.47-.07,2.71-.11,3.74-.11.36,0,.67.07.91.19.23.13.35.32.35.58,0,.55-.46.92-1.37,1.1-1.28.3-2.13.71-2.53,1.24-.4.53-.6,1.38-.6,2.55v24.89c0,1.21.21,2.07.63,2.58.42.51,1.28.9,2.55,1.16.48.11.83.25,1.04.41.22.16.33.39.33.69,0,.22-.13.4-.39.55s-.55.22-.88.22c-1.24,0-2.47-.06-3.68-.17-1.47-.07-2.55-.11-3.25-.11-.66,0-1.79.04-3.4.11-1.69.08-3.01.11-3.96.11-.77,0-1.15-.26-1.15-.77,0-.29.1-.51.3-.66.2-.15.54-.28,1.02-.39,1.35-.29,2.31-.72,2.86-1.27.55-.55.82-1.37.82-2.47v-10.44c0-.59-.18-.88-.55-.88h-16.71c-.22,0-.38.07-.46.19-.09.13-.14.34-.14.63v10.28c0,1.1.31,1.96.93,2.58.62.62,1.61,1.08,2.97,1.38.51.11.87.24,1.07.39.2.15.3.36.3.66,0,.51-.4.77-1.21.77-.95,0-2.27-.04-3.96-.11-1.68-.07-2.87-.11-3.57-.11-.73,0-1.87.04-3.41.11-1.21.11-2.44.17-3.68.17-.33,0-.62-.08-.88-.22Z"/>
    <path class="cls-4" d="M861.89,771.17c-2.88-1.52-5.18-3.66-6.9-6.4-1.72-2.75-2.58-5.88-2.58-9.4s.75-6.52,2.25-9.45c1.5-2.93,3.71-5.28,6.62-7.06,2.91-1.78,6.38-2.67,10.41-2.67,3.33,0,6.44.76,9.32,2.28,2.87,1.52,5.17,3.66,6.89,6.4,1.72,2.75,2.59,5.88,2.59,9.4s-.75,6.52-2.25,9.45c-1.51,2.93-3.71,5.29-6.62,7.06-2.91,1.78-6.38,2.67-10.41,2.67-3.33,0-6.44-.76-9.31-2.28ZM879.94,767.27c1.79-2.51,2.69-5.91,2.69-10.2,0-3.26-.45-6.29-1.35-9.09-.9-2.8-2.24-5.05-4.04-6.76-1.8-1.7-3.98-2.55-6.54-2.55-3.37,0-5.96,1.25-7.75,3.76-1.8,2.51-2.69,5.89-2.69,10.14,0,3.26.44,6.29,1.32,9.09.88,2.8,2.2,5.07,3.98,6.78,1.78,1.72,3.97,2.59,6.57,2.59,3.41,0,6.01-1.26,7.81-3.76Z"/>
    <path class="cls-4" d="M903.65,769.58c-2.62-2.59-3.93-6.11-3.93-10.58v-16.05c0-1.1-.24-2.03-.72-2.8-.47-.77-1.13-1.27-1.98-1.48-1.1-.26-1.65-.66-1.65-1.21,0-.22.15-.39.44-.52.3-.13.66-.19,1.1-.19.7,0,1.74.04,3.13.11,1.54.08,2.66.11,3.35.11s1.82-.04,3.35-.11l3.08-.05c.99,0,1.48.24,1.48.71,0,.26-.12.46-.35.61-.24.15-.55.29-.93.44s-.71.27-.97.39c-.58.26-1.1.74-1.54,1.46-.44.71-.66,1.6-.66,2.67v14.78c0,3.77.91,6.63,2.72,8.57,1.82,1.94,4.17,2.91,7.06,2.91,3.44,0,6.02-1.08,7.72-3.24,1.7-2.16,2.55-5.33,2.55-9.51,0-4.87-.04-8.52-.11-10.94-.07-2.13-.3-3.7-.69-4.72-.39-1.03-1.05-1.74-2.01-2.15-.18-.07-.46-.17-.82-.3-.37-.13-.66-.27-.88-.41-.22-.15-.33-.31-.33-.5,0-.51.53-.77,1.59-.77l2.86.05c.44.04,1.13.06,2.09.06.66,0,1.47-.04,2.42-.11l2.36-.06c.99,0,1.49.24,1.49.72s-.55.86-1.65,1.15c-1.1.3-1.88.81-2.33,1.54-.46.73-.73,1.76-.8,3.08-.19,3.92-.31,7.78-.39,11.59,0,1.62-.02,2.84-.05,3.68-.04,2.86-.71,5.43-2.01,7.72-1.3,2.29-3.06,4.06-5.28,5.33-2.22,1.26-4.66,1.9-7.34,1.9-4.98,0-8.78-1.29-11.4-3.87Z"/>
    <path class="cls-4" d="M940.93,771.09c-.47-.37-.82-.79-1.04-1.26-.55-1.65-.79-4.07-.72-7.26,0-.47.35-.71,1.04-.71.29,0,.52.05.69.14.17.09.28.27.36.52.81,2.75,1.98,4.89,3.52,6.43,1.54,1.54,3.28,2.31,5.22,2.31,1.72,0,3.09-.57,4.12-1.7,1.03-1.14,1.54-2.51,1.54-4.12,0-1.24-.22-2.28-.66-3.1-.44-.83-1.08-1.56-1.93-2.2-.84-.64-2.05-1.42-3.63-2.33-2.13-1.25-3.77-2.29-4.95-3.13-1.17-.84-2.19-1.93-3.05-3.27-.86-1.34-1.29-2.94-1.29-4.81,0-2.01.52-3.81,1.56-5.38,1.04-1.58,2.5-2.8,4.37-3.68,1.87-.88,4.03-1.32,6.49-1.32,1.24,0,2.45.13,3.63.39,1.17.26,2.16.57,2.97.93.36.15.65.33.85.55.2.22.38.57.52,1.04.55,1.9.82,3.94.82,6.1,0,.44-.31.66-.93.66-.33,0-.64-.07-.93-.22s-.47-.35-.55-.61c-1.35-4.32-3.68-6.48-6.98-6.48-1.72,0-3.08.45-4.06,1.35-.99.9-1.48,2.24-1.48,4.04,0,1.28.59,2.46,1.78,3.52,1.19,1.06,3.1,2.38,5.74,3.96,2.82,1.72,4.87,3.4,6.15,5.03,1.28,1.63,1.92,3.65,1.92,6.07,0,3.56-1.14,6.27-3.43,8.16-2.29,1.89-5.4,2.83-9.32,2.83-3.26,0-6.04-.81-8.35-2.42Z"/>
    <path class="cls-4" d="M968.08,772.73c-.26-.15-.39-.33-.39-.55,0-.47.48-.82,1.43-1.04,1.35-.36,2.31-.79,2.86-1.29.55-.5.82-1.33.82-2.5v-24.89c0-1.21-.24-2.08-.74-2.61-.5-.53-1.42-.94-2.78-1.24-.95-.18-1.43-.55-1.43-1.1,0-.26.12-.45.35-.58s.56-.19.96-.19c1.1,0,2.6.04,4.51.11,1.9.08,3.32.11,4.23.11,2.93,0,6.41-.04,10.44-.11,1.13-.04,2.12-.09,2.94-.16.82-.08,1.31-.11,1.46-.11.77,0,1.19.27,1.26.82l.39,2.48c.33,1.9.5,3.29.5,4.18,0,.29-.08.53-.22.71-.15.19-.33.27-.55.27-.37,0-.66-.25-.88-.77-.29-.77-.58-1.49-.85-2.17-.27-.68-.56-1.16-.85-1.46-1.03-1.1-2.33-1.65-3.91-1.65h-5.11c-.7,0-1.31.2-1.84.61-.53.4-.8.93-.8,1.59v10.77c0,.85.43,1.27,1.27,1.27h5c.92,0,1.59-.24,2.01-.72.42-.47.81-1.26,1.18-2.36.22-.73.57-1.1,1.04-1.1.18,0,.35.1.5.31.15.2.22.46.22.8-.15,1.47-.22,2.87-.22,4.23,0,1.87.05,3.35.16,4.45v.28c0,.66-.19.99-.55.99-.26,0-.5-.14-.74-.41s-.41-.65-.52-1.13c-.29-1.06-.64-1.84-1.04-2.33-.41-.5-.96-.74-1.65-.74h-5.11c-.55,0-.94.1-1.18.31-.24.2-.36.54-.36,1.01v10.44c0,1.17.25,2,.74,2.48.5.47,1.29.71,2.39.71h4.51c1.97,0,3.46-.36,4.45-1.1.99-.77,2.03-2.2,3.13-4.29.26-.48.59-.71.99-.71.36.04.55.35.55.93,0,1.17-.57,3.46-1.7,6.87-.22.51-.58.77-1.1.77l-6.59-.11c-4.69-.08-8.37-.11-11.05-.11-.7,0-1.85.04-3.46.11-1.21.11-2.45.16-3.74.16-.37,0-.68-.08-.93-.22Z"/>
  </g>
  <g>
    <polygon class="cls-3" points="122.29 681.85 1157.71 681.85 1157.71 675.74 122.29 675.74 122.29 681.85 122.29 681.85"/>
    <polygon class="cls-1" points="122.29 663.52 1157.71 663.52 1157.71 669.63 122.29 669.63 122.29 663.52 122.29 663.52"/>
    <polygon class="cls-2" points="122.29 675.74 1157.71 675.74 1157.71 669.63 122.29 669.63 122.29 675.74 122.29 675.74"/>
  </g>
  <g>
    <path class="cls-4" d="M760.18,361.09c-2.66-9.13-8.31-17.06-12.21-25.75-1.01-2.26-5.72-17.09-7.7-21.2-.02-.04-.04-.11-.04-.15-.86-2.3-1.79-4.58-2.87-6.79-4.37-9.03-11.66-17.51-21.52-19.49-2.83-.57-5.76-.57-8.65-.44-1.27-.11-2.59-.17-3.99-.17-26.32-.36-33.9,3.16-37.25,1.18-3.35-2.05,1.62-15.23,2.4-17.19.78-1.98,3.5-10.08,3.73-16.24.21-5.38-.36-10.06-4.79-16.05-4.41-6.01-15.76-27.91-15.76-27.91,0,0,.04-11.6,2.24-22.4,2.15-10.78,11.07-30.99,12.85-31.11,1.77-.11-1.39,3.37,10.44,15.69,11.85,12.3,24.85,13.12,24.85,12.07s-15.74.93-26.39-29.53c-4.85-13.82.34-17.15,0-20.61-.36-3.44-.25-5.7-2.26-5.59-1.96.15-3.86,4.53-6.64,6.5-2.78,1.98-5.86-.04-8.06,1.79-2.24,1.84-1.77,9.66-2.76,13.88-.97,4.22-7.32,19.26-9.62,20.14-2.3.84-4.6-9.34-4.68-14.11-.13-4.77,3.69-9.77,4.26-13.86.53-4.11-7.87-8.77-6.69-18.33,1.31-10.4,15.63-15.44,14.7-16.81-.95-1.39-12.4,5.02-19.68,12.09-7.24,7.07-10.61,14.05-11.85,22.36-1.2,8.33,2.32,22.02,2.68,33.81.36,11.79-5.36,34.02-5.36,34.02,0,0-15.27-14.53-31.77-19.72-16.52-5.15-25.67-3.88-27.55-3.33-1.84.55-2.24,1.79-1.58,3.14.7,1.37,2.28,1.9,6.41,2.78,4.16.89,11.58,3.23,11.24,7.3-.36,4.07-2.97,4.01-2.53,6.12.44,2.13,20,8.99,25.75,11.92,5.8,2.95,12.78,5.8,15.19,13.27,2.47,7.49.86,21.39-4.83,30.04-5.74,8.65-14.98,8.73-19.32,13.61-4.37,4.87-4.74,6.69-3.37,8.33,1.53,1.81,7.61,2.64,10.45,3.38,2.85.76,17.19,1.14,25.73,3.23,8.58,2.09,15.9,6.07,25.88,10.86,9.98,4.83,20.73,2,32.31,9.85,8.37,5.67,16.25,19.92,19.05,27.11,4.43,11.26,13.79,13.24,19.82,22.38,6.01,9.15,15.88,42.76,15.61,46.85-.4,5.63-12.85-19.51-21.33-26.35-7.17-5.78-11.7.93-18.4-4.58-6.75-5.55-7.44-14.14-11.21-20.79-3.67-6.48-8.12-17.06-37.9-26.11-7.38-2.24-18.46-4.22-46.81-3.82-28.35.4-35.75,12.11-43.64,7.11-7.89-5.06,2.15-20.38-4.66-36.28-6.14-14.39-11.29-27.42-16.2-22.51-4.81,4.81,15.78,15.08,7.19,46.59-4.83,17.7-12.07,19.03-8.82,25.4,2.38,4.62,27.4.59,33.83-2.07.02,0,.03-.01.05-.02,4.67-1.9,10.13-4.39,15.15-4.72,4.33-.29,12.21,4.67,18.16,4.17,3.76-.31,11.44-3.59,15.05-4.71,6.24-1.93,12.88-2.28,19.32-1.21,14.43,2.39,25.06,6.81,31.39,12.19,10.72,9.11,13.27,14.07,14.91,17.76,2.03,4.51,8.96,15.53,9.7,26.15.6,8.59-4.46,21.47-3.22,22.5,2.33,1.92,13.79-21.79,26.13-14.45,7.13,4.24,16.68,21.07,18.14,24.34,1.39,3.27,2,12.09,1.35,13.61-.7,1.5-1.99,3.06-4.14,3.89-2.19.84-21.03-9.39-23.24-11.27-2.24-1.9-7-7.68-6.83-11.26.25-5.95,4.97-8.8,7.67-12.38,2.49-3.31-12.58,6.25-13.59,11.03-.8,3.82.93,6.33,2.11,7.99,1.18,1.67,1.92,3.31,6.12,6.58,4.2,3.29,23.27,13.73,26.35,14.32,3.1.59,4.7,1.08,6.54,0,1.88-1.12,7.74-12.44,5.51-25.73-.38-2.3,3.71-6.45,4.83-8.75,7.05-17.63,8.12-25.1,14.15-43.07.57-1.71,1.14-3.46,1.22-5.25.08-1.75-.32-3.48-.8-5.17ZM717.7,350.27s-8.42-5.41-11.21-12.38c-3.28-8.19-8.87-15.55-8.3-17.56.59-2.05,1.94-1.6,3.52-1.35,1.6.23,11.05,1.5,14.43,8.54,3.33,7.05,1.56,22.74,1.56,22.74Z"/>
    <path class="cls-4" d="M579.66,131.32s15.66-21.84,28.19-32.25c12.57-10.37,44.48-15.91,44.48-15.91,0,0,25.1-3.55,25.69-3.22.63.34-1.14,2.45-.68,2.88.51.38,8.29,2.29,13.46.97,5.12-1.27,10.16-4.4,11.98-4.02,1.78.42,2.88,4.95,5.12,5.71,2.24.8,7.58-.68,9.06-.68s3.2,1.51,3.21,1.52h0s-3.44,6.76-8.23,10.24c-4.78,3.48-14.94,3.4-15.44,4.53-.5,1.13,4.45,2.94,4.87,3.52.42.59.13,1.05-.5,2.01-.63.97-9.95,9.57-11.75,12.09-1.8,2.52-7.72,18.93-6.55,19.64,1.17.71,9.69-10.2,13.09-10.57,3.4-.38,11.79,2.77,14.77,2.01,2.98-.76,8.31-5.5,11.08-5.37,2.77.13,6.88,4.11,6.71,4.7-.17.59-3.57-.08-6.04.5-2.48.59-8.18,2.69-8.56,3.02-.38.34-.38.76-.17,1.34.21.59,3.19,1.51,3.19,1.51,0,0,4.78,3.82,7.72,4.2,2.94.38,8.06-1.23,8.9-.5.84.73,2.85,12.76,1.54,16.23-.66,1.74-13.98,41.21-9.17,41.42,5.32.23,11.29-12.51,17.8-10.75,2.85.77,3.09,4.3,3.76,6.15.67,1.85.22,20.42-.67,21.48-.9,1.06-8.81-.59-10.57.67-1.76,1.26-1.09,3.94-2.01,5.04-.92,1.09-3.44,1.85-3.69,3.53-.25,1.68,2.43,6.71,2.35,8.06-.08,1.34-1.59,2.38-3.19,2.38s-5.58.05-6.93-1.04c-1.34-1.09-15.81-15.38-18.35-23.82-1.66-5.51.88-14.11-.24-12.6-1.12,1.51-4.39,7.75-3.02,12.25,4.43,14.59,14.1,25.51,17.96,28.37,3.86,2.85,7.97,4.53,11.08,3.86,3.11-.67,24.73-11.08,27.19-14.94,2.46-3.86-2.77-46.33-3.52-51.7-.76-5.37-3.36-16.87-3.53-22.32-.17-5.46,3.27-17.46,3.53-21.48.25-4.03-4.36-12.76-3.36-14.77,1.01-2.01,5.62-5.28,5.37-9.48-.25-4.2-8.31-28.45-9.23-31.64-.92-3.19-4.03-7.89-4.03-7.89h-.02s.85-9.06,0-11.09c-.8-1.99-4.91-2.75-7.36-2.5-2.5.25-6.01,3.22-8.21,2.5-2.24-.72-2.03-6.98-3.89-8.04-1.82-1.06-8.68,6.73-16.08,4.36-7.45-2.37-28.78-19.55-32.08-21.16-3.3-1.57,1.02,15.7,0,16.46-1.02.76-8.63-8.46-18.79-9.06-10.16-.59-23.28-.85-31.74-1.86-8.46-1.02-29.03-10.16-29.54-9.39s9.48,21.08,13.42,24.16c2.2,1.69-9.23.34-26.66-10.24-11.47-6.94-24.46-13.08-31.74-13.92-16.12-1.86-31.95,7.41-40.97,7.58-8.97.13-16.84-2.96-17.44-2.54-.59.42,3.6,15.87,18.96,18.45,15.36,2.62,21.92,7.15,21.67,8.08-.25.89-1.61,5.92-20.14,4.36-9.23-.8-10.75-.93-14.09,0-3.39.93-5.88,3.34-5.71,3.85.17.51,9.73-.59,15.95,4.02,6.18,4.61,1.4,9.9-4.23,13.12-5.59,3.17-18.88,15.11-38.26,14.6-24.76-.68-31.06,1.99-27.63,3.43,3.43,1.44,27.04,9.01,39.06,15.7,12.02,6.64,34.62,4.66,36.1,5.21,1.44.55-20.48,9.52-31.74,12.23-11.26,2.75-27.04,1.65-28.19,2.2-1.18.55,8.89,10.66,15.49,13.63,6.6,3,14.3,2.5,16.55,4.32,2.24,1.86,16.8,14.85,17.65,17.14.8,2.29-21.16,8.89-21.16,8.89,0,0-12.02,1.23-12.1,2.2,0,.93,7.62,4.4,17.82,5.04,10.24.59,12.57,2.03,13.42,3.34.85,1.27-9.9,19.64-8.37,19.64,5.36,0,13.75-29.9,60.89-58.57,18.5-11.25,26.53-20.99,26.53-20.99ZM566.49,57.3c4.44,0,19.13,2.58,19.64,4.02.51,1.44-4.87,6.47-7.49,8.29-2.58,1.86-10.11,4.49-10.16,3.3-.25-11.93-9.56-11.51-10.5-13.12-.89-1.57,4.06-2.5,8.51-2.5ZM537.21,122.1c-1.35-3.68-13.12-11.43-13.8-13.46-.64-1.99,4.4-7.36,3.55-9.73-.85-2.33-7.91-6.01-11.76-5.5-3.85.47,12.74-6.05,20.14-6.56,7.41-.51,12.27-.17,14.77,4.36,2.54,4.53-7.24,11.6-8.72,13.58-1.52,2.03-.68,2.88,1.65,3.55,2.37.63,21.41-7.11,28.99-11.43,7.57-4.32,13.67-9.21,22.39-13.29,13.02-6.1,37.52-9.25,35.72-8.58-43.99,16.42-36.47,22.36-58.13,43.11-20.33,19.47-31.89,23.76-37.67,23.7-2.76-.03,4.16-16.08,2.85-19.76Z"/>
  </g>
  <g>
    <g>
      <path class="cls-4" d="M589.62,556.54c0-28.8,22.65-53.1,56.4-53.1,9.3,0,24.75,2.1,32.55,7.35l.6,19.8-1.8.45c-6.15-15.45-21.9-24.75-36.9-24.75-19.65,0-34.79,13.2-35.1,40.35-.3,28.35,16.95,60.74,45.75,60.74,9.45,0,18-3.9,21.75-11.4v-13.65c0-11.7-1.35-10.36-7.8-12.16v-2.1h23.25v22.06c-11.25,14.7-29.7,20.85-42.15,20.85-34.5,0-56.54-21.6-56.54-54.44Z"/>
      <path class="cls-4" d="M781.72,591.92l-37.17-88.62-14.69,6.61,1.93,4.19c1.34,2.68,1.51,5.11.29,8.08l-28.05,69.62c-4.02,10.05-8.08,13.94-12.6,15.57v2.14h17.41v-2.14c-5.11-1.17-5.99-5.53-1.97-15.57l8.71-21.48.92-2.39,18.75-46.34,19.34,46.34,1.05,2.39,9,21.6c4.19,9.92,6.28,13.81,1.34,15.45v2.14h27.29v-2.14c-3.43-1.63-7.33-5.53-11.55-15.45Z"/>
      <path class="cls-4" d="M802.55,568.69v-45.15c0-10.8-1.05-15.3-6-16.95v-2.1h27.9v2.1c-4.95,1.65-6,6.15-6,16.95v46.35c0,27.3,13.5,37.5,33.9,37.5,12.6,0,28.95-9.3,28.95-38.4v-36.45c0-18.3-3.6-23.55-11.4-25.95v-2.1h20.1v2.1c-4.95,1.65-6,6.15-6,16.95v45.15c0,30.15-15.75,42.3-37.64,42.3s-43.8-10.05-43.8-42.3Z"/>
      <path class="cls-4" d="M902.13,558.79c0-30.3,24-55.34,60.75-55.34,11.1,0,26.54,2.1,34.34,7.35l.6,19.8-1.8.45c-6.15-15.45-21.6-24.75-37.05-24.75-24,0-40.95,15.9-40.95,45.74s17.1,55.8,46.34,55.8c16.8,0,28.35-10.2,33.75-25.8l1.95.3-2.4,21.45c-7.95,3.6-19.35,7.2-37.65,7.2-35.85,0-57.89-18.6-57.89-52.2Z"/>
      <path class="cls-4" d="M1109.68,506.61v-2.09h-27.88v2.09c4.94,1.63,5.99,6.15,5.99,16.95v66.9c0,10.8-1.05,15.28-5.99,16.91v2.14h27.88v-2.14c-4.94-1.63-5.99-6.11-5.99-16.91v-66.9c0-10.8,1.05-15.32,5.99-16.95ZM1013.69,506.61c4.94,1.63,5.99,6.15,5.99,16.95v66.9c0,10.8-1.05,15.28-5.99,16.91v2.14h27.88v-2.14c-4.94-1.63-5.99-6.11-5.99-16.91v-66.9c0-10.8,1.05-15.32,5.99-16.95v-2.09h-27.88v2.09Z"/>
      <path class="cls-4" d="M1203.83,591.92l-37.17-88.62-14.69,6.61,1.93,4.19c1.38,2.68,1.51,5.11.34,8.08l-28.05,69.62c-4.06,10.05-8.12,13.94-12.6,15.57v2.14h17.37v-2.14c-5.07-1.17-5.99-5.53-1.93-15.57l8.71-21.48.88-2.39,18.75-46.34,19.34,46.34,1.05,2.39,9,21.6c4.19,9.92,6.32,13.81,1.34,15.45v2.14h27.29v-2.14c-3.43-1.63-7.33-5.53-11.55-15.45Z"/>
      <polygon class="cls-4" points="755.63 570.32 665.06 570.32 665.06 567.93 754.59 567.93 755.63 570.32"/>
      <polygon class="cls-4" points="1177.75 570.32 1025.93 570.32 1026.81 567.93 1176.7 567.93 1177.75 570.32"/>
    </g>
    <g>
      <path class="cls-4" d="M90.71,607.39c4.95-1.65,6-6.15,6-16.95v-83.24h-4.65c-13.35,0-20.1,3.75-25.65,15.75l-1.8-.3.9-18.15h78.14l.9,18.15-1.8.3c-5.55-12-12.3-15.75-25.65-15.75h-4.35v83.24c0,10.8,1.05,15.3,6,16.95v2.1h-28.05v-2.1Z"/>
      <path class="cls-4" d="M153.54,607.39c4.95-1.65,6-6.15,6-16.95v-66.89c0-10.8-1.05-15.3-6-16.95v-2.1h71.99l1.65,21.15-1.95.45c-6-14.7-15.45-19.2-32.25-19.2h-17.55v44.99h14.4c18.3,0,23.55-3.6,25.95-11.4h2.1v25.2h-2.1c-2.4-7.8-7.65-11.4-25.95-11.4h-14.4v45.3c0,4.8,2.7,7.5,7.5,7.5h14.4c15.15,0,25.5-4.5,31.2-19.8l1.95.3-1.05,21.9h-75.89v-2.1Z"/>
      <path class="cls-4" d="M296.46,584.89c-9-21.9-9.75-29.25-22.95-29.25h-8.85v34.8c0,10.8,1.05,15.3,6,16.95v2.1h-27.9v-2.1c4.95-1.65,6-6.15,6-16.95v-66.89c0-10.8-1.05-15.3-6-16.95v-2.1h31.5c32.7,0,39.45,11.85,39.45,24,0,13.8-9.45,24.15-29.4,26.55,16.95,1.95,20.25,9,28.2,28.95,7.95,19.95,9.6,23.55,15.15,23.55.75,0,1.5,0,2.25-.15v2.1c-3.45.9-8.25,1.05-10.8,1.05-12.45,0-15.45-8.1-22.65-25.65ZM274.26,553.24c17.1,0,23.55-9.6,23.55-21.15,0-12.15-7.8-25.2-26.55-25.2-2.1,0-4.35.15-6.6.45v45.89h9.6Z"/>
      <path class="cls-4" d="M389.13,584.89c-9-21.9-9.75-29.25-22.95-29.25h-8.85v34.8c0,10.8,1.05,15.3,6,16.95v2.1h-27.9v-2.1c4.95-1.65,6-6.15,6-16.95v-66.89c0-10.8-1.05-15.3-6-16.95v-2.1h31.5c32.7,0,39.45,11.85,39.45,24,0,13.8-9.45,24.15-29.4,26.55,16.95,1.95,20.25,9,28.2,28.95,7.95,19.95,9.6,23.55,15.15,23.55.75,0,1.5,0,2.25-.15v2.1c-3.45.9-8.25,1.05-10.8,1.05-12.45,0-15.45-8.1-22.65-25.65ZM366.93,553.24c17.1,0,23.55-9.6,23.55-21.15,0-12.15-7.8-25.2-26.55-25.2-2.1,0-4.35.15-6.6.45v45.89h9.6Z"/>
      <path class="cls-4" d="M426.18,607.39c4.5-1.65,8.55-5.55,12.6-15.6l28.05-69.59c1.2-3,1.05-5.4-.3-8.1l-1.95-4.2,14.7-6.6,37.19,88.64c4.2,9.9,8.1,13.8,11.55,15.45v2.1h-27.3v-2.1c4.95-1.65,2.85-5.55-1.35-15.45l-9-21.6h-40.05l-8.7,21.45c-4.05,10.05-3.15,14.4,1.95,15.6v2.1h-17.4v-2.1ZM489.33,567.94l-19.35-46.35-18.75,46.35h38.1Z"/>
      <rect class="cls-4" x="263.82" y="553.24" width="95.58" height="2.41"/>
    </g>
  </g>
</svg>